<?xml version="1.0" encoding="UTF-8" standalone="no"?>
<!DOCTYPE svg PUBLIC "-//W3C//DTD SVG 1.1//EN"
 "http://www.w3.org/Graphics/SVG/1.1/DTD/svg11.dtd">
<!-- Generated by graphviz version 12.2.1 (20241206.2353)
 -->
<!-- Title: LightweightHybridModel Pages: 1 -->
<svg width="2085pt" height="106pt"
 viewBox="0.00 0.00 2084.93 106.00" xmlns="http://www.w3.org/2000/svg" xmlns:xlink="http://www.w3.org/1999/xlink">
<g id="graph0" class="graph" transform="scale(1 1) rotate(0) translate(4 102)">
<title>LightweightHybridModel</title>
<polygon fill="white" stroke="none" points="-4,4 -4,-102 2080.93,-102 2080.93,4 -4,4"/>
<g id="clust1" class="cluster">
<title>cluster_complex</title>
<polygon fill="#fff8dc" stroke="black" points="229.93,-8 229.93,-90 798.93,-90 798.93,-8 229.93,-8"/>
<text text-anchor="middle" x="514.43" y="-72.7" font-family="Times New Roman,serif" font-size="14.00">Complex Feature Extraction</text>
</g>
<g id="clust2" class="cluster">
<title>cluster_residual</title>
<polygon fill="#f0fff0" stroke="black" points="819.93,-8 819.93,-90 1192.18,-90 1192.18,-8 819.93,-8"/>
<text text-anchor="middle" x="1006.05" y="-72.7" font-family="Times New Roman,serif" font-size="14.00">Complex Residual Learning</text>
</g>
<g id="clust3" class="cluster">
<title>cluster_global</title>
<polygon fill="#f5f5dc" stroke="black" points="1213.18,-8 1213.18,-90 1485.68,-90 1485.68,-8 1213.18,-8"/>
<text text-anchor="middle" x="1349.43" y="-72.7" font-family="Times New Roman,serif" font-size="14.00">Global Feature Processing</text>
</g>
<g id="clust4" class="cluster">
<title>cluster_classification</title>
<polygon fill="#fff0f5" stroke="black" points="1506.68,-8 1506.68,-90 2068.93,-90 2068.93,-8 1506.68,-8"/>
<text text-anchor="middle" x="1787.8" y="-72.7" font-family="Times New Roman,serif" font-size="14.00">Real Classification</text>
</g>
<!-- input -->
<g id="node1" class="node">
<title>input</title>
<ellipse fill="#e8f4fd" stroke="black" cx="51.09" cy="-37" rx="51.09" ry="28.99"/>
<text text-anchor="middle" x="51.09" y="-40.2" font-family="Times New Roman,serif" font-size="14.00">I/Q Signal</text>
<text text-anchor="middle" x="51.09" y="-23.7" font-family="Times New Roman,serif" font-size="14.00">(2, 128)</text>
</g>
<!-- permute -->
<g id="node2" class="node">
<title>permute</title>
<polygon fill="#f0f8ff" stroke="black" points="200.93,-57.5 139.18,-57.5 139.18,-16.5 200.93,-16.5 200.93,-57.5"/>
<text text-anchor="middle" x="170.05" y="-40.2" font-family="Times New Roman,serif" font-size="14.00">Permute</text>
<text text-anchor="middle" x="170.05" y="-23.7" font-family="Times New Roman,serif" font-size="14.00">(128, 2)</text>
</g>
<!-- input&#45;&gt;permute -->
<g id="edge1" class="edge">
<title>input&#45;&gt;permute</title>
<path fill="none" stroke="black" d="M102.37,-37C110.69,-37 119.24,-37 127.32,-37"/>
<polygon fill="black" stroke="black" points="127.23,-40.5 137.23,-37 127.23,-33.5 127.23,-40.5"/>
</g>
<!-- conv1 -->
<g id="node3" class="node">
<title>conv1</title>
<polygon fill="#ffe6cc" stroke="black" points="363.43,-57.5 237.93,-57.5 237.93,-16.5 363.43,-16.5 363.43,-57.5"/>
<text text-anchor="middle" x="300.68" y="-40.2" font-family="Times New Roman,serif" font-size="14.00">ComplexConv1D</text>
<text text-anchor="middle" x="300.68" y="-23.7" font-family="Times New Roman,serif" font-size="14.00">filters=32, kernel=5</text>
</g>
<!-- permute&#45;&gt;conv1 -->
<g id="edge2" class="edge">
<title>permute&#45;&gt;conv1</title>
<path fill="none" stroke="black" d="M201.21,-37C208.88,-37 217.47,-37 226.29,-37"/>
<polygon fill="black" stroke="black" points="226.03,-40.5 236.03,-37 226.03,-33.5 226.03,-40.5"/>
</g>
<!-- bn1 -->
<g id="node4" class="node">
<title>bn1</title>
<polygon fill="#ffe6cc" stroke="black" points="485.43,-55 400.43,-55 400.43,-19 485.43,-19 485.43,-55"/>
<text text-anchor="middle" x="442.93" y="-31.95" font-family="Times New Roman,serif" font-size="14.00">ComplexBN</text>
</g>
<!-- conv1&#45;&gt;bn1 -->
<g id="edge3" class="edge">
<title>conv1&#45;&gt;bn1</title>
<path fill="none" stroke="black" d="M363.6,-37C371.98,-37 380.52,-37 388.73,-37"/>
<polygon fill="black" stroke="black" points="388.55,-40.5 398.55,-37 388.55,-33.5 388.55,-40.5"/>
</g>
<!-- act1 -->
<g id="node5" class="node">
<title>act1</title>
<polygon fill="#ffe6cc" stroke="black" points="645.68,-57.5 522.43,-57.5 522.43,-16.5 645.68,-16.5 645.68,-57.5"/>
<text text-anchor="middle" x="584.05" y="-40.2" font-family="Times New Roman,serif" font-size="14.00">ComplexActivation</text>
<text text-anchor="middle" x="584.05" y="-23.7" font-family="Times New Roman,serif" font-size="14.00">(CReLU)</text>
</g>
<!-- bn1&#45;&gt;act1 -->
<g id="edge4" class="edge">
<title>bn1&#45;&gt;act1</title>
<path fill="none" stroke="black" d="M485.67,-37C493.63,-37 502.17,-37 510.76,-37"/>
<polygon fill="black" stroke="black" points="510.54,-40.5 520.54,-37 510.54,-33.5 510.54,-40.5"/>
</g>
<!-- pool1 -->
<g id="node6" class="node">
<title>pool1</title>
<polygon fill="#ffcccc" stroke="black" points="790.93,-57.5 682.68,-57.5 682.68,-16.5 790.93,-16.5 790.93,-57.5"/>
<text text-anchor="middle" x="736.8" y="-40.2" font-family="Times New Roman,serif" font-size="14.00">ComplexPooling</text>
<text text-anchor="middle" x="736.8" y="-23.7" font-family="Times New Roman,serif" font-size="14.00">size=2</text>
</g>
<!-- act1&#45;&gt;pool1 -->
<g id="edge5" class="edge">
<title>act1&#45;&gt;pool1</title>
<path fill="none" stroke="black" d="M645.93,-37C654.25,-37 662.81,-37 671.19,-37"/>
<polygon fill="black" stroke="black" points="670.94,-40.5 680.94,-37 670.94,-33.5 670.94,-40.5"/>
</g>
<!-- res1 -->
<g id="node7" class="node">
<title>res1</title>
<polygon fill="#ccffcc" stroke="black" points="907.68,-57.5 827.93,-57.5 827.93,-16.5 907.68,-16.5 907.68,-57.5"/>
<text text-anchor="middle" x="867.8" y="-40.2" font-family="Times New Roman,serif" font-size="14.00">ResBlock&#45;1</text>
<text text-anchor="middle" x="867.8" y="-23.7" font-family="Times New Roman,serif" font-size="14.00">filters=64</text>
</g>
<!-- pool1&#45;&gt;res1 -->
<g id="edge6" class="edge">
<title>pool1&#45;&gt;res1</title>
<path fill="none" stroke="black" d="M791.39,-37C799.67,-37 808.2,-37 816.41,-37"/>
<polygon fill="black" stroke="black" points="816.22,-40.5 826.22,-37 816.22,-33.5 816.22,-40.5"/>
</g>
<!-- res2 -->
<g id="node8" class="node">
<title>res2</title>
<polygon fill="#ccffcc" stroke="black" points="1045.93,-57.5 966.18,-57.5 966.18,-16.5 1045.93,-16.5 1045.93,-57.5"/>
<text text-anchor="middle" x="1006.05" y="-40.2" font-family="Times New Roman,serif" font-size="14.00">ResBlock&#45;2</text>
<text text-anchor="middle" x="1006.05" y="-23.7" font-family="Times New Roman,serif" font-size="14.00">filters=128</text>
</g>
<!-- res1&#45;&gt;res2 -->
<g id="edge7" class="edge">
<title>res1&#45;&gt;res2</title>
<path fill="none" stroke="black" d="M908.01,-25.26C913.88,-23.91 919.9,-22.75 925.68,-22 935.17,-20.77 945.25,-21.26 954.92,-22.65"/>
<polygon fill="black" stroke="black" points="954.08,-26.05 964.54,-24.37 955.32,-19.16 954.08,-26.05"/>
</g>
<!-- res1&#45;&gt;res2 -->
<g id="edge15" class="edge">
<title>res1&#45;&gt;res2</title>
<path fill="none" stroke="gray" stroke-dasharray="5,2" d="M907.85,-37C922.38,-37 939.1,-37 954.52,-37"/>
<polygon fill="gray" stroke="gray" points="954.49,-40.5 964.49,-37 954.49,-33.5 954.49,-40.5"/>
<text text-anchor="middle" x="936.93" y="-40.2" font-family="Times New Roman,serif" font-size="14.00">skip</text>
</g>
<!-- res3 -->
<g id="node9" class="node">
<title>res3</title>
<polygon fill="#ccffcc" stroke="black" points="1184.18,-57.5 1104.43,-57.5 1104.43,-16.5 1184.18,-16.5 1184.18,-57.5"/>
<text text-anchor="middle" x="1144.3" y="-40.2" font-family="Times New Roman,serif" font-size="14.00">ResBlock&#45;3</text>
<text text-anchor="middle" x="1144.3" y="-23.7" font-family="Times New Roman,serif" font-size="14.00">filters=256</text>
</g>
<!-- res2&#45;&gt;res3 -->
<g id="edge8" class="edge">
<title>res2&#45;&gt;res3</title>
<path fill="none" stroke="black" d="M1046.26,-25.26C1052.13,-23.91 1058.15,-22.75 1063.93,-22 1073.42,-20.77 1083.5,-21.26 1093.17,-22.65"/>
<polygon fill="black" stroke="black" points="1092.33,-26.05 1102.79,-24.37 1093.57,-19.16 1092.33,-26.05"/>
</g>
<!-- res2&#45;&gt;res3 -->
<g id="edge16" class="edge">
<title>res2&#45;&gt;res3</title>
<path fill="none" stroke="gray" stroke-dasharray="5,2" d="M1046.1,-37C1060.63,-37 1077.35,-37 1092.77,-37"/>
<polygon fill="gray" stroke="gray" points="1092.74,-40.5 1102.74,-37 1092.74,-33.5 1092.74,-40.5"/>
<text text-anchor="middle" x="1075.18" y="-40.2" font-family="Times New Roman,serif" font-size="14.00">skip</text>
</g>
<!-- global_pool -->
<g id="node10" class="node">
<title>global_pool</title>
<polygon fill="#dddddd" stroke="black" points="1340.68,-57.5 1221.18,-57.5 1221.18,-16.5 1340.68,-16.5 1340.68,-57.5"/>
<text text-anchor="middle" x="1280.93" y="-40.2" font-family="Times New Roman,serif" font-size="14.00">ComplexGlobal</text>
<text text-anchor="middle" x="1280.93" y="-23.7" font-family="Times New Roman,serif" font-size="14.00">AveragePooling1D</text>
</g>
<!-- res3&#45;&gt;global_pool -->
<g id="edge9" class="edge">
<title>res3&#45;&gt;global_pool</title>
<path fill="none" stroke="black" d="M1184.6,-37C1192.48,-37 1200.98,-37 1209.55,-37"/>
<polygon fill="black" stroke="black" points="1209.29,-40.5 1219.29,-37 1209.29,-33.5 1209.29,-40.5"/>
</g>
<!-- complex_dense -->
<g id="node11" class="node">
<title>complex_dense</title>
<polygon fill="#ccccff" stroke="black" points="1477.68,-57.5 1377.68,-57.5 1377.68,-16.5 1477.68,-16.5 1477.68,-57.5"/>
<text text-anchor="middle" x="1427.68" y="-40.2" font-family="Times New Roman,serif" font-size="14.00">ComplexDense</text>
<text text-anchor="middle" x="1427.68" y="-23.7" font-family="Times New Roman,serif" font-size="14.00">512 units</text>
</g>
<!-- global_pool&#45;&gt;complex_dense -->
<g id="edge10" class="edge">
<title>global_pool&#45;&gt;complex_dense</title>
<path fill="none" stroke="black" d="M1340.8,-37C1349.2,-37 1357.84,-37 1366.27,-37"/>
<polygon fill="black" stroke="black" points="1366.06,-40.5 1376.06,-37 1366.06,-33.5 1366.06,-40.5"/>
</g>
<!-- magnitude -->
<g id="node12" class="node">
<title>magnitude</title>
<polygon fill="#ffccff" stroke="black" points="1640.18,-57.5 1514.68,-57.5 1514.68,-16.5 1640.18,-16.5 1640.18,-57.5"/>
<text text-anchor="middle" x="1577.43" y="-40.2" font-family="Times New Roman,serif" font-size="14.00">ComplexMagnitude</text>
<text text-anchor="middle" x="1577.43" y="-23.7" font-family="Times New Roman,serif" font-size="14.00">Extraction</text>
</g>
<!-- complex_dense&#45;&gt;magnitude -->
<g id="edge11" class="edge">
<title>complex_dense&#45;&gt;magnitude</title>
<path fill="none" stroke="black" d="M1477.88,-37C1485.9,-37 1494.36,-37 1502.81,-37"/>
<polygon fill="black" stroke="black" points="1502.79,-40.5 1512.79,-37 1502.79,-33.5 1502.79,-40.5"/>
</g>
<!-- dense2 -->
<g id="node13" class="node">
<title>dense2</title>
<polygon fill="#ffccff" stroke="black" points="1792.18,-57.5 1677.18,-57.5 1677.18,-16.5 1792.18,-16.5 1792.18,-57.5"/>
<text text-anchor="middle" x="1734.68" y="-40.2" font-family="Times New Roman,serif" font-size="14.00">Dense</text>
<text text-anchor="middle" x="1734.68" y="-23.7" font-family="Times New Roman,serif" font-size="14.00">256 units + ReLU</text>
</g>
<!-- magnitude&#45;&gt;dense2 -->
<g id="edge12" class="edge">
<title>magnitude&#45;&gt;dense2</title>
<path fill="none" stroke="black" d="M1640.23,-37C1648.55,-37 1657.11,-37 1665.53,-37"/>
<polygon fill="black" stroke="black" points="1665.36,-40.5 1675.36,-37 1665.36,-33.5 1665.36,-40.5"/>
</g>
<!-- dropout -->
<g id="node14" class="node">
<title>dropout</title>
<polygon fill="#ffccff" stroke="black" points="1890.93,-57.5 1829.18,-57.5 1829.18,-16.5 1890.93,-16.5 1890.93,-57.5"/>
<text text-anchor="middle" x="1860.05" y="-40.2" font-family="Times New Roman,serif" font-size="14.00">Dropout</text>
<text text-anchor="middle" x="1860.05" y="-23.7" font-family="Times New Roman,serif" font-size="14.00">rate=0.3</text>
</g>
<!-- dense2&#45;&gt;dropout -->
<g id="edge13" class="edge">
<title>dense2&#45;&gt;dropout</title>
<path fill="none" stroke="black" d="M1792.67,-37C1801.07,-37 1809.58,-37 1817.59,-37"/>
<polygon fill="black" stroke="black" points="1817.37,-40.5 1827.37,-37 1817.37,-33.5 1817.37,-40.5"/>
</g>
<!-- output -->
<g id="node15" class="node">
<title>output</title>
<polygon fill="#ffb6c1" stroke="black" points="2060.93,-57.5 1927.93,-57.5 1927.93,-16.5 2060.93,-16.5 2060.93,-57.5"/>
<text text-anchor="middle" x="1994.43" y="-40.2" font-family="Times New Roman,serif" font-size="14.00">Output</text>
<text text-anchor="middle" x="1994.43" y="-23.7" font-family="Times New Roman,serif" font-size="14.00">11 classes + Softmax</text>
</g>
<!-- dropout&#45;&gt;output -->
<g id="edge14" class="edge">
<title>dropout&#45;&gt;output</title>
<path fill="none" stroke="black" d="M1891.42,-37C1899.04,-37 1907.57,-37 1916.36,-37"/>
<polygon fill="black" stroke="black" points="1916.08,-40.5 1926.08,-37 1916.08,-33.5 1916.08,-40.5"/>
</g>
</g>
</svg>
